<?xml version="1.0" standalone="no"?>
<!DOCTYPE svg PUBLIC "-//W3C//DTD SVG 20010904//EN"
 "http://www.w3.org/TR/2001/REC-SVG-20010904/DTD/svg10.dtd">
<svg version="1.0" xmlns="http://www.w3.org/2000/svg"
 width="1000.000000pt" height="1000.000000pt" viewBox="0 0 1000.000000 1000.000000"
 preserveAspectRatio="xMidYMid meet">

<g transform="translate(0.000000,1000.000000) scale(0.100000,-0.100000)"
fill="#000000" stroke="none">
<path d="M2280 7945 c-262 -20 -479 -51 -502 -71 -31 -29 -48 -108 -47 -223 1
-58 4 -117 8 -131 4 -16 32 -42 79 -73 72 -47 122 -103 149 -166 8 -18 54
-192 103 -385 49 -193 101 -380 115 -415 61 -155 178 -302 282 -355 62 -31
183 -58 398 -88 139 -19 202 -22 480 -22 283 0 335 2 445 22 313 54 490 150
617 334 84 121 143 256 274 628 38 107 75 211 82 230 11 30 20 38 67 53 119
40 351 27 392 -21 8 -9 38 -86 67 -170 64 -187 191 -512 233 -596 65 -129 156
-240 248 -302 104 -70 285 -131 480 -160 168 -26 641 -26 835 0 226 29 387 62
441 89 138 70 259 240 322 452 11 39 50 189 86 335 36 146 75 293 85 328 31
100 86 164 202 235 56 34 74 160 43 297 -26 113 -31 116 -219 140 -88 11 -212
25 -275 31 -181 16 -993 23 -1230 10 -449 -25 -863 -83 -1210 -168 -140 -34
-152 -35 -327 -34 -159 0 -194 3 -280 25 -290 73 -650 130 -1053 167 -185 17
-1183 20 -1390 4z"/>
<path d="M4112 4239 c-486 -417 -886 -759 -891 -759 -4 0 -281 337 -615 750
-334 412 -612 753 -618 756 -6 4 -8 -4 -5 -22 3 -16 8 -63 12 -104 8 -104 53
-614 65 -735 5 -55 14 -156 20 -225 6 -69 15 -172 20 -230 5 -58 14 -161 20
-230 6 -69 15 -168 20 -220 6 -52 19 -201 30 -330 11 -129 29 -338 40 -465 11
-126 25 -275 30 -330 6 -55 17 -174 25 -265 11 -117 19 -168 29 -175 8 -6 124
-42 258 -79 133 -38 473 -133 753 -212 281 -79 589 -166 685 -194 96 -27 359
-101 583 -164 224 -64 420 -116 434 -116 14 0 71 13 127 29 55 17 216 62 356
101 140 39 343 96 450 126 107 31 265 75 350 99 240 67 959 269 1215 341 126
36 235 70 241 75 6 5 14 46 17 91 8 103 21 253 41 473 9 94 20 222 26 285 6
63 17 192 26 285 8 94 19 220 25 280 5 61 18 209 29 330 11 121 24 274 30 340
6 66 15 167 20 225 6 58 26 285 45 505 20 220 38 428 42 463 5 53 3 62 -10 62
-9 0 -284 -331 -634 -764 -340 -421 -621 -764 -624 -763 -4 1 -402 342 -884
757 -483 415 -883 758 -889 761 -6 4 -405 -332 -894 -752z"/>
</g>
</svg>
